<?xml version="1.0" standalone="no"?>
<!DOCTYPE svg PUBLIC "-//W3C//DTD SVG 20010904//EN"
 "http://www.w3.org/TR/2001/REC-SVG-20010904/DTD/svg10.dtd">
<svg version="1.0" xmlns="http://www.w3.org/2000/svg"
 width="538.000000pt" height="538.000000pt" viewBox="0 0 538.000000 538.000000"
 preserveAspectRatio="xMidYMid meet">
<metadata>
Created by potrace 1.11, written by Peter Selinger 2001-2013
</metadata>
<g transform="translate(0.000000,538.000000) scale(0.100000,-0.100000)"
fill="#000000" stroke="none">
<path d="M2390 4779 c-309 -37 -534 -137 -693 -308 -61 -65 -144 -194 -158
-246 -58 -211 -84 -257 -221 -399 -62 -65 -118 -127 -125 -139 -33 -59 7 -210
70 -260 27 -22 37 -38 37 -59 0 -16 16 -59 36 -96 l35 -68 -16 -45 c-27 -73
-28 -77 -21 -124 5 -30 12 -45 22 -45 9 0 31 -15 49 -32 19 -18 55 -51 81 -73
33 -28 58 -63 83 -115 l36 -75 69 -3 c65 -3 71 -1 100 26 42 40 68 52 113 52
100 -1 153 -101 104 -198 -10 -20 -47 -64 -81 -97 -47 -44 -72 -79 -98 -135
-19 -41 -67 -145 -107 -230 -40 -85 -76 -164 -79 -175 -3 -11 5 -68 19 -125
38 -157 126 -328 222 -430 69 -73 160 -146 171 -135 2 2 -12 44 -32 93 -62
153 -80 246 -80 417 l-1 150 79 143 c43 79 84 146 92 149 8 3 14 20 14 42 0
40 36 109 50 95 5 -5 5 -29 0 -54 -5 -25 -9 -73 -10 -107 0 -83 41 -162 139
-266 67 -70 158 -147 175 -147 12 0 6 35 -18 111 -36 109 -44 192 -34 332 11
154 11 157 44 126 40 -37 47 -57 54 -155 6 -68 15 -107 36 -155 34 -76 140
-222 157 -217 20 7 114 138 148 206 25 52 32 81 37 151 6 96 18 135 55 169 24
23 26 23 35 5 9 -18 17 -179 13 -278 -2 -47 -23 -143 -55 -247 -18 -58 -10
-60 53 -13 80 58 193 185 230 257 33 66 34 69 27 155 -3 48 -7 97 -9 108 -1
11 4 20 11 20 8 0 33 -45 56 -100 24 -55 71 -152 106 -215 62 -113 64 -117 68
-204 8 -159 -29 -356 -92 -499 -14 -32 -26 -62 -26 -68 0 -19 62 23 136 93
121 115 214 285 260 473 l25 105 -39 88 c-170 376 -186 405 -251 467 -73 70
-101 118 -101 176 0 35 6 48 39 80 33 33 45 39 83 39 44 0 71 -13 119 -57 23
-21 34 -24 95 -21 l69 3 36 75 c25 53 51 88 85 117 27 24 59 52 72 62 12 11
22 31 22 44 0 13 9 36 20 50 24 30 26 70 5 87 -26 21 -19 83 14 124 17 21 40
57 51 82 12 24 37 56 55 70 32 24 33 28 40 118 8 107 4 119 -69 204 -25 30
-46 59 -46 65 0 7 -25 41 -55 76 -33 39 -61 85 -71 115 -10 28 -25 62 -35 76
-11 14 -28 60 -38 102 -22 87 -37 118 -94 203 -144 213 -367 345 -677 400
-111 20 -594 30 -720 14z m530 -19 c71 -5 126 -13 128 -19 2 -6 10 -11 18 -11
9 0 12 5 9 10 -3 6 -1 10 4 10 6 0 11 -4 11 -9 0 -5 8 -7 19 -4 34 9 214 -46
318 -97 56 -27 125 -70 154 -95 29 -25 56 -45 60 -45 5 0 33 -31 64 -69 54
-67 71 -103 80 -165 2 -15 9 -34 16 -42 17 -21 18 -109 0 -176 -15 -56 -21
-65 -56 -85 -54 -30 -60 -29 -63 15 -1 20 -7 39 -13 41 -5 1 -2 10 8 18 10 8
12 12 6 8 -8 -4 -13 0 -13 10 0 9 -4 13 -10 10 -5 -3 -10 -1 -10 4 0 6 4 11 9
11 14 0 20 38 7 43 -7 3 -13 -3 -13 -13 -4 -45 -41 -96 -103 -141 -36 -26 -71
-48 -79 -48 -8 -1 -61 -35 -118 -76 l-104 -75 -187 -50 c-103 -28 -189 -50
-192 -50 -4 0 -4 16 -2 35 6 48 -12 44 -28 -5 -17 -51 -30 -54 -153 -41 -53 6
-101 11 -106 11 -5 0 -15 16 -22 35 -16 43 -29 45 -29 5 0 -35 -8 -36 -110
-19 -36 7 -74 13 -85 14 -70 6 -136 19 -150 29 -15 11 -14 14 5 39 12 16 21
29 19 31 -2 2 -14 9 -26 15 -19 10 -23 9 -23 -5 0 -10 -5 -14 -15 -10 -8 3
-15 1 -15 -4 0 -6 -6 -10 -13 -10 -21 0 -218 127 -258 166 -28 27 -37 32 -33
17 4 -14 0 -20 -11 -20 -11 0 -15 6 -12 19 3 10 1 16 -4 12 -8 -5 -10 1 -13
46 -3 39 -36 55 -36 18 0 -19 2 -20 11 -8 7 11 8 -3 3 -45 -4 -33 -11 -63 -16
-66 -5 -3 0 -9 12 -12 17 -4 21 -11 17 -27 -3 -13 0 -23 8 -26 8 -3 13 -14 12
-24 -1 -15 -5 -16 -28 -8 -15 5 -30 16 -33 24 -3 8 -11 14 -17 14 -8 0 -7 -5
2 -17 11 -15 10 -14 -9 1 -12 11 -22 27 -22 36 0 10 -7 23 -15 30 -9 7 -13 20
-10 29 3 8 3 12 -1 9 -8 -9 -34 16 -34 33 0 7 -7 19 -15 28 -8 9 -23 26 -35
39 -21 23 -33 96 -23 140 4 18 8 21 14 10 6 -8 9 0 9 24 0 27 13 56 52 114 52
78 151 184 172 184 6 0 17 9 23 19 35 55 264 156 425 186 167 31 443 42 668
25z m993 -802 c-2 -5 0 -8 5 -8 4 0 15 -15 24 -32 9 -18 34 -54 57 -80 22 -25
41 -49 41 -52 0 -15 -195 -133 -315 -192 -252 -122 -536 -220 -959 -329 -344
-89 -563 -132 -931 -184 -259 -36 -453 -56 -462 -47 -4 4 -1 35 7 69 19 85 16
126 -14 193 -15 31 -25 58 -24 59 2 1 83 12 181 24 98 13 266 37 374 55 183
31 194 32 190 15 -7 -26 8 -24 30 4 13 17 37 27 83 36 401 77 1023 233 1242
312 152 55 360 150 418 192 l35 25 12 -26 c6 -15 9 -30 6 -34z m-2136 -20 c-3
-7 -5 -2 -5 12 0 14 2 19 5 13 2 -7 2 -19 0 -25z m-246 -62 c156 -71 470 -155
734 -195 111 -17 366 -49 415 -52 20 -1 -100 -29 -338 -79 -213 -44 -372 -54
-422 -25 -14 8 -29 14 -35 14 -5 0 1 -6 14 -13 50 -28 -316 -2 -589 42 -96 16
-105 19 -108 40 -6 37 42 105 132 187 47 42 88 85 91 96 9 26 21 24 106 -15z
m266 2 c-3 -8 -6 -5 -6 6 -1 11 2 17 5 13 3 -3 4 -12 1 -19z m2365 -236 c29
-47 18 -90 -34 -137 l-41 -37 -166 6 c-91 4 -195 9 -230 13 l-63 6 168 86 c93
48 194 103 224 124 l54 37 34 -33 c18 -17 42 -47 54 -65z m-2817 -131 c98 -19
222 -33 400 -47 l90 -7 -70 -13 c-39 -6 -146 -22 -238 -33 l-167 -22 -54 36
c-46 30 -76 71 -76 101 0 6 10 5 115 -15z m2440 -61 c83 -5 192 -10 244 -10
l93 0 -32 -37 c-18 -20 -41 -56 -52 -80 -18 -42 -20 -43 -66 -43 -128 0 -702
65 -714 80 -5 6 -5 8 -2 5 4 -3 13 0 20 6 8 6 20 9 28 6 8 -3 17 1 20 9 3 8
10 14 16 14 6 0 8 -6 4 -12 -4 -7 4 -4 17 8 20 18 91 48 136 57 7 2 16 7 20
11 4 4 33 5 63 2 30 -4 123 -11 205 -16z m-543 -139 c76 -16 346 -58 400 -62
56 -5 -310 -65 -502 -83 -189 -18 -679 -30 -615 -15 21 5 45 7 53 4 7 -2 11
-1 8 4 -8 13 62 19 75 6 7 -7 8 -5 4 6 -5 12 1 18 22 21 59 10 442 124 459
137 1 1 44 -8 96 -18z m538 -147 c0 -8 -5 -12 -10 -9 -6 4 -8 11 -5 16 9 14
15 11 15 -7z m-260 -24 c-14 -11 -33 -26 -43 -34 -11 -9 -35 -11 -70 -8 -59 5
-59 6 33 -64 88 -67 200 -174 211 -201 12 -33 31 -29 23 5 -4 15 -11 35 -15
44 -14 26 -10 106 5 136 23 43 126 132 153 132 7 0 19 -13 27 -28 15 -29 53
-52 86 -52 10 0 33 12 50 27 26 21 33 24 41 12 13 -20 11 -31 -10 -56 -13 -15
-30 -23 -53 -23 -28 -1 -31 -2 -17 -13 9 -7 21 -22 28 -34 10 -20 9 -23 -5
-23 -10 0 -14 3 -11 7 7 6 -40 43 -56 43 -11 0 0 -49 14 -66 10 -13 8 -13 -16
-4 -34 13 -41 8 -19 -14 23 -24 11 -31 -20 -11 -25 17 -26 17 -20 -1 4 -11 12
-26 18 -34 6 -8 -2 -4 -17 9 -30 27 -49 21 -24 -7 26 -29 20 -38 -8 -12 -35
32 -33 4 2 -32 27 -28 14 -41 -13 -13 -22 21 -36 19 -29 -5 4 -11 2 -20 -4
-20 -6 0 -11 -10 -11 -22 -1 -21 -2 -22 -14 -5 -7 9 -16 17 -20 17 -11 0 -6
-38 7 -43 9 -4 9 -6 0 -6 -6 -1 -14 3 -17 8 -3 5 -14 7 -25 4 -14 -3 -36 16
-90 80 -73 88 -130 140 -191 173 -19 10 -45 29 -58 42 -13 12 -28 20 -33 16
-6 -3 -18 1 -27 9 -9 9 -29 19 -44 22 -38 10 -25 25 20 25 20 1 82 9 137 19
55 10 111 19 125 20 l25 0 -25 -19z m-538 -115 c11 -33 26 -67 34 -76 8 -9 12
-24 8 -34 -6 -15 -3 -17 27 -13 43 7 73 -9 125 -64 58 -61 98 -123 155 -241
50 -104 60 -139 36 -119 -8 7 -18 7 -27 2 -8 -5 -18 -6 -22 -4 -4 3 -8 -5 -8
-18 0 -13 -7 -31 -14 -41 -13 -17 -15 -16 -34 10 -26 38 -59 114 -84 193 -20
66 -33 88 -44 78 -3 -4 2 -57 10 -120 9 -62 15 -127 14 -144 -3 -29 -6 -32
-38 -32 -19 0 -36 -5 -38 -11 -5 -14 -32 -14 -32 0 0 8 -4 8 -15 -1 -12 -10
-15 -7 -21 16 -4 15 -14 34 -24 44 -9 9 -27 47 -40 83 -13 37 -29 67 -36 67
-11 0 -24 -42 -24 -84 -1 -28 -34 -98 -43 -89 -4 3 -7 -2 -7 -11 0 -12 -5 -16
-15 -12 -8 3 -15 2 -15 -3 0 -4 -22 -7 -50 -7 -27 0 -50 3 -50 5 0 2 23 31 51
63 28 32 47 58 43 58 -3 0 -1 6 5 13 9 11 2 16 -30 26 -27 8 -46 22 -57 42
-10 16 -19 29 -22 29 -3 0 -12 -13 -22 -29 -11 -20 -30 -34 -57 -42 l-41 -12
23 -21 c21 -20 87 -110 87 -119 0 -2 -16 -4 -35 -5 -19 -1 -35 3 -35 9 0 6 -7
9 -15 5 -9 -3 -21 5 -32 22 -10 15 -23 33 -30 40 -7 7 -13 22 -13 33 0 10 -5
19 -11 19 -7 0 -9 10 -5 28 5 20 4 23 -4 12 -9 -13 -10 -13 -11 0 -1 8 -1 18
-1 21 1 3 -9 6 -21 5 -16 -1 -23 -8 -25 -26 -1 -14 -7 -51 -13 -82 -9 -46 -16
-58 -30 -58 -11 0 -19 -7 -19 -17 0 -14 -2 -15 -9 -5 -13 21 -23 -15 -11 -38
7 -13 7 -21 0 -25 -5 -3 -10 0 -10 8 0 8 -7 20 -15 27 -13 10 -15 9 -15 -10 0
-20 -2 -19 -26 9 -14 17 -30 29 -34 26 -17 -11 -22 89 -10 196 6 61 9 113 6
116 -3 3 -8 0 -10 -8 -26 -81 -48 -162 -58 -210 -7 -33 -17 -58 -22 -58 -28 3
-36 -3 -36 -27 0 -21 -3 -24 -13 -16 -10 8 -13 6 -14 -9 -1 -11 2 -17 7 -14 4
3 6 -4 3 -15 -9 -33 -20 -32 -20 2 0 18 -7 36 -17 43 -9 7 -18 27 -18 44 -1
18 -6 31 -14 31 -10 0 -10 7 -1 30 6 17 14 30 18 30 4 0 5 9 2 20 -3 12 0 20
8 20 7 0 9 3 6 7 -4 3 3 17 15 30 12 13 18 23 14 23 -4 0 2 13 13 29 12 16 21
34 21 40 0 5 11 22 25 37 14 15 25 32 25 38 0 7 12 19 28 28 15 9 43 32 62 50
19 19 52 44 72 57 21 12 37 25 36 29 -1 4 4 20 10 35 7 16 12 31 12 35 1 4 9
17 20 30 16 19 23 21 39 13 11 -6 27 -8 35 -5 23 9 20 -2 -13 -49 -15 -23 -35
-55 -44 -72 -8 -16 -38 -61 -67 -100 -78 -106 -68 -126 107 -199 109 -46 160
-47 182 -2 10 22 11 37 4 56 -7 20 -6 37 5 63 17 45 32 47 55 8 15 -26 16 -32
1 -72 -22 -63 -13 -89 32 -89 46 0 210 57 252 87 27 21 32 30 32 67 0 30 -5
46 -15 50 -8 3 -15 10 -15 16 0 6 5 8 10 5 16 -10 12 3 -15 45 -14 22 -25 42
-25 45 0 2 -25 31 -56 62 -60 62 -84 92 -84 106 0 4 23 7 52 5 l51 -3 19 -60z
m-435 49 c-3 -3 -12 -4 -19 -1 -8 3 -5 6 6 6 11 1 17 -2 13 -5z m-581 -70 c-4
-15 -40 -58 -80 -95 -40 -37 -88 -90 -107 -117 -31 -45 -37 -49 -69 -47 -48 3
-70 14 -69 34 0 10 2 11 6 3 2 -6 8 -10 13 -7 10 6 0 55 -11 55 -5 0 -6 -7 -3
-15 8 -19 -10 -20 -25 -1 -10 11 -8 17 6 26 16 10 16 11 1 6 -24 -7 -31 9 -17
36 9 19 9 21 -2 11 -18 -17 -32 -16 -26 1 4 11 1 13 -11 9 -9 -3 -14 -3 -10 1
8 10 -22 46 -39 46 -7 0 -13 6 -13 14 0 9 25 16 83 24 l82 10 28 -32 c26 -28
28 -36 25 -93 -3 -47 -1 -63 9 -63 7 0 13 4 13 10 0 18 82 95 98 92 13 -2 14
-1 4 6 -17 11 21 47 42 39 10 -4 13 -1 10 7 -4 11 48 66 63 66 3 0 2 -12 -1
-26z m-232 -19 c3 -8 2 -15 -3 -15 -5 0 -14 7 -21 15 -10 12 -10 15 3 15 8 0
17 -7 21 -15z m2049 -258 c-3 -5 -10 -4 -15 1 -6 6 -7 16 -3 22 6 9 9 9 16 -1
4 -7 5 -17 2 -22z m-1768 -421 c30 -99 22 -143 -51 -284 l-66 -127 5 -150 c6
-153 23 -256 59 -355 35 -97 34 -98 -31 -35 -94 91 -177 265 -215 448 -12 59
-12 76 1 125 16 62 140 327 199 424 l37 61 24 -29 c13 -16 30 -51 38 -78z
m1488 16 c62 -105 152 -297 177 -378 18 -58 19 -75 10 -127 -24 -131 -90 -297
-160 -400 -26 -39 -110 -120 -117 -114 -1 1 12 40 28 86 41 118 59 233 59 388
l0 135 -59 106 c-64 118 -79 185 -60 272 11 50 55 124 68 115 5 -3 30 -40 54
-83z m-727 -19 c40 -52 69 -164 61 -234 -7 -59 -43 -128 -97 -189 l-40 -45
-40 45 c-22 25 -55 73 -72 108 -28 57 -30 68 -25 130 7 86 33 156 74 199 27
29 37 34 69 31 31 -2 44 -11 70 -45z m-430 -131 c26 -34 33 -54 39 -114 6 -64
29 -170 50 -233 14 -41 -107 103 -138 164 -33 67 -47 168 -33 227 6 24 8 25
29 11 12 -8 36 -32 53 -55z m796 17 c17 -98 -41 -245 -134 -336 l-47 -46 15
49 c21 69 44 189 44 232 0 29 10 50 46 95 25 32 51 56 57 54 6 -2 15 -23 19
-48z"/>
<path d="M2400 4720 c-8 -5 -18 -6 -22 -4 -5 3 -24 -4 -43 -16 -19 -12 -43
-20 -52 -19 -23 4 -63 -10 -63 -21 0 -14 18 -21 25 -10 3 5 25 10 48 10 23 0
51 7 61 15 11 8 29 15 40 15 33 0 50 14 34 28 -8 7 -19 7 -28 2z"/>
<path d="M3032 4699 c5 -14 150 -59 190 -59 21 0 -24 39 -53 45 -16 4 -29 11
-29 16 0 13 -28 11 -32 -2 -3 -9 -9 -9 -25 0 -28 14 -56 14 -51 0z"/>
<path d="M2125 4631 c-74 -26 -135 -64 -123 -77 7 -7 169 62 169 72 0 12 -21
14 -46 5z"/>
<path d="M3340 4572 c0 -16 25 -32 50 -32 18 0 42 -15 73 -46 26 -25 47 -50
47 -54 0 -12 50 -41 60 -35 15 9 0 35 -21 35 -10 0 -25 13 -34 30 -20 38 -73
90 -94 91 -9 1 -26 1 -38 1 -13 -1 -23 3 -23 8 0 6 -4 10 -10 10 -5 0 -10 -4
-10 -8z"/>
<path d="M1922 4520 c0 -14 2 -19 5 -12 2 6 2 18 0 25 -3 6 -5 1 -5 -13z"/>
<path d="M1844 4477 c3 -11 -9 -36 -34 -70 -22 -28 -43 -63 -46 -77 -2 -14 -8
-36 -13 -50 -4 -14 -5 -35 -1 -45 7 -19 7 -19 14 2 4 13 5 27 2 32 -3 5 1 14
9 21 8 7 24 31 36 55 12 23 32 56 45 71 20 24 25 27 34 14 5 -8 10 -24 10 -35
0 -28 28 -49 81 -63 38 -10 46 -9 57 5 18 25 15 30 -19 37 -22 4 -30 10 -25
21 7 19 -8 19 -24 0 -11 -14 -15 -13 -27 5 -12 17 -12 24 -3 35 10 12 9 15 -4
15 -10 0 -14 5 -10 11 3 6 0 15 -7 20 -19 12 -32 11 -24 -1 12 -19 -26 -23
-41 -4 -14 17 -15 17 -10 1z"/>
<path d="M1777 4464 c-4 -4 -7 -14 -7 -23 0 -11 3 -12 11 -4 6 6 10 16 7 23
-2 6 -7 8 -11 4z"/>
<path d="M2020 4404 c0 -8 5 -12 10 -9 6 4 8 11 5 16 -9 14 -15 11 -15 -7z"/>
<path d="M3575 4365 c4 -16 11 -34 16 -39 15 -16 10 16 -7 44 l-15 25 6 -30z"/>
<path d="M1650 4350 c-8 -5 -11 -12 -8 -16 10 -9 38 3 38 16 0 12 -10 13 -30
0z"/>
<path d="M3607 4250 c3 -11 7 -20 9 -20 2 0 4 9 4 20 0 11 -4 20 -9 20 -5 0
-7 -9 -4 -20z"/>
<path d="M3620 4201 c0 -11 4 -22 9 -25 4 -3 6 6 3 19 -5 30 -12 33 -12 6z"/>
<path d="M1750 4188 c0 -19 2 -20 10 -8 13 19 13 30 0 30 -5 0 -10 -10 -10
-22z"/>
<path d="M1758 4134 c-5 -4 -8 -19 -8 -33 0 -18 3 -22 11 -14 6 6 9 21 7 33
-1 12 -6 18 -10 14z"/>
<path d="M1741 4004 c0 -11 3 -14 6 -6 3 7 2 16 -1 19 -3 4 -6 -2 -5 -13z"/>
<path d="M3700 2970 c0 -5 5 -10 11 -10 5 0 7 5 4 10 -3 6 -8 10 -11 10 -2 0
-4 -4 -4 -10z"/>
<path d="M3720 2941 c0 -7 -4 -9 -10 -6 -5 3 -10 1 -10 -4 0 -6 4 -11 9 -11
13 0 25 20 17 27 -3 4 -6 1 -6 -6z"/>
<path d="M2397 1553 c-54 -179 -59 -283 -26 -480 14 -82 18 -128 11 -135 -10
-10 -50 7 -162 72 -36 21 -90 49 -120 61 -135 56 -260 180 -339 337 -50 99
-64 83 -44 -52 30 -202 86 -340 171 -417 144 -130 319 -260 410 -305 73 -36
75 -37 170 -32 70 3 111 11 146 26 62 28 111 28 172 0 42 -19 66 -23 164 -23
l115 0 73 45 c41 25 117 80 170 124 54 43 122 96 152 118 71 52 94 79 134 158
43 84 62 144 81 254 17 101 19 166 6 166 -6 0 -28 -35 -50 -77 -79 -151 -180
-248 -340 -325 -57 -27 -121 -61 -142 -75 -44 -29 -126 -56 -134 -43 -3 5 4
64 15 132 32 195 26 293 -27 471 -34 114 -50 113 -73 -3 -24 -117 -70 -236
-138 -360 -32 -58 -63 -117 -70 -132 -16 -38 -30 -35 -48 10 -8 20 -19 44 -24
52 -86 135 -151 292 -180 430 -23 116 -39 117 -73 3z m106 -203 c13 -36 36
-89 51 -118 14 -28 26 -60 26 -71 0 -35 -21 -118 -34 -136 -12 -17 -15 -17
-65 0 -49 16 -55 21 -79 73 -44 96 -40 268 10 432 l20 64 23 -89 c13 -50 34
-119 48 -155z m477 204 c26 -66 44 -187 44 -289 1 -99 -2 -116 -25 -166 -24
-51 -31 -58 -75 -73 -26 -9 -51 -16 -56 -16 -14 0 -35 59 -43 116 -6 45 -3 59
23 110 36 72 85 208 102 287 7 31 15 57 17 57 2 0 8 -12 13 -26z m-1209 -221
c19 -34 81 -106 146 -172 116 -117 196 -222 187 -245 -13 -35 -94 -46 -134
-19 -105 69 -178 191 -214 354 -16 76 -26 139 -21 139 2 0 18 -26 36 -57z
m1879 -43 c-20 -103 -36 -153 -70 -221 -49 -97 -147 -189 -202 -189 -31 0 -88
25 -88 39 0 25 93 141 193 242 66 66 127 138 146 172 18 32 35 57 36 55 2 -2
-5 -46 -15 -98z m-1210 -332 c0 -11 19 -27 50 -43 43 -22 51 -23 56 -10 7 18
31 20 36 3 3 -9 10 -8 22 5 10 9 21 15 26 12 5 -3 11 1 13 7 3 7 6 3 6 -10 1
-31 28 -82 44 -82 7 0 25 14 40 30 29 30 60 39 72 20 9 -15 25 -12 25 5 0 13
4 14 20 5 16 -9 20 -8 20 5 0 18 17 20 22 3 3 -7 12 -9 22 -5 10 4 14 12 10
19 -6 10 -5 11 8 1 8 -7 18 -10 22 -6 4 4 16 -3 26 -17 18 -22 20 -23 20 -6 0
19 1 19 13 2 10 -14 18 -15 40 -7 15 6 27 8 27 6 0 -3 10 5 21 16 28 28 39 11
37 -54 -1 -57 13 -75 65 -84 26 -4 46 0 74 17 l38 22 -40 -37 c-38 -35 -108
-85 -120 -85 -3 0 -5 8 -6 18 0 10 -6 4 -15 -15 -16 -37 -25 -44 -17 -13 8 32
-14 23 -26 -10 -5 -16 -15 -30 -22 -30 -6 0 -9 6 -6 14 11 29 -7 25 -19 -4 -7
-16 -18 -30 -24 -30 -6 0 -8 5 -5 10 7 11 -8 14 -19 3 -4 -4 -40 -8 -80 -10
-63 -2 -80 1 -127 25 -41 20 -56 34 -63 57 -5 17 -11 37 -13 45 -3 10 -9 5
-17 -15 -7 -16 -12 -33 -10 -36 2 -3 -21 -20 -51 -38 -40 -24 -68 -33 -109
-36 -33 -1 -59 2 -63 8 -4 6 -9 3 -14 -9 -6 -17 -8 -16 -18 9 -12 31 -26 37
-18 7 9 -34 -12 -22 -29 18 -9 20 -18 32 -21 25 -2 -7 1 -22 7 -33 6 -12 9
-24 6 -27 -9 -9 -26 7 -46 45 l-21 37 6 -35 6 -35 -21 24 c-11 13 -20 29 -20
37 0 8 -5 14 -11 14 -6 0 -8 -9 -4 -22 6 -23 6 -23 -10 -3 -9 11 -21 20 -28
20 -32 2 -47 18 -47 50 0 43 17 55 26 18 l7 -27 10 25 c5 14 11 19 14 12 7
-19 23 -16 23 5 0 10 6 24 13 31 10 11 9 12 -1 7 -9 -6 -12 1 -10 28 1 19 6
32 10 30 5 -3 6 -10 3 -15 -4 -5 -1 -9 5 -9 8 0 9 11 4 32 -6 29 -5 31 10 19
9 -7 16 -10 17 -5 0 5 5 -2 11 -16 9 -23 11 -24 17 -6 6 15 10 16 16 7 6 -11
9 -11 16 0 8 12 11 11 19 -1 8 -13 10 -12 10 3 0 9 5 17 10 17 6 0 10 21 10
48 0 34 3 43 10 32 5 -8 10 -23 10 -32z m-280 -174 c0 -8 -5 -12 -10 -9 -6 4
-8 11 -5 16 9 14 15 11 15 -7z"/>
<path d="M3115 860 c-3 -5 -1 -10 4 -10 6 0 11 5 11 10 0 6 -2 10 -4 10 -3 0
-8 -4 -11 -10z"/>
</g>
</svg>
